<svg width="199" height="108" viewBox="0 0 199 108" fill="none" xmlns="http://www.w3.org/2000/svg">
<mask id="mask0_2_29" style="mask-type:luminance" maskUnits="userSpaceOnUse" x="0" y="-17" width="199" height="125">
<path d="M0 -17H199V108H0V-17Z" fill="white"/>
</mask>
<g mask="url(#mask0_2_29)">
<path fill-rule="evenodd" clip-rule="evenodd" d="M99.9457 31.233V38.7711C98.646 38.8324 97.5071 39.1331 96.5384 39.6642C95.4685 40.2632 94.5928 41.0334 93.884 41.9748C93.189 42.9283 92.6471 43.9428 92.2857 45.0431C91.9105 46.1313 91.6882 47.1948 91.6048 48.2217H99.9457V55.7766H91.6048C91.702 57.5127 92.0912 59.0039 92.7862 60.2389C93.481 61.4733 94.4121 62.488 95.5657 63.2707C96.7191 64.0531 98.0394 64.6276 99.5267 64.9942C99.6655 65.0275 99.8049 65.059 99.9457 65.089V73.589C96.184 73.3381 92.9173 72.5315 90.1454 71.1556C86.7959 69.481 84.2528 67.1214 82.5014 64.0407C80.7505 60.9722 79.861 57.317 79.847 53.0628C79.847 50.7034 80.1527 48.4417 80.7505 46.2779C81.362 44.1263 82.2375 42.1214 83.4189 40.2998C84.5864 38.4662 86.0318 36.8769 87.7551 35.5198C89.4784 34.1631 91.4519 33.0994 93.6755 32.3535C95.5898 31.7054 97.6768 31.3342 99.9457 31.233ZM78.0126 34.2118C76.6642 33.5762 75.0106 33.0383 73.0369 32.6104C71.0774 32.1825 68.8955 31.9503 66.5049 31.938C63.92 31.9503 61.5711 32.2804 59.4866 32.9283C57.4016 33.5762 55.6091 34.4808 54.1218 35.6421C52.6346 36.8037 51.4952 38.1728 50.703 39.7376C49.9108 41.3024 49.5077 43.0017 49.494 44.8476C49.4799 46.339 49.8551 47.8059 50.6336 49.2365C51.4118 50.6545 52.6765 51.9993 54.4138 53.2704C56.1509 54.542 58.458 55.6911 61.3347 56.7303C63.0164 57.3538 64.3508 57.9528 65.3237 58.503C66.2967 59.0652 66.9914 59.6642 67.4085 60.2876C67.8253 60.9113 68.02 61.6324 68.006 62.4514C68.006 63.7107 67.4779 64.7131 66.4215 65.4466C65.3653 66.1677 63.7533 66.5469 61.5851 66.559C60.2926 66.5469 58.9585 66.4124 57.6101 66.1311C56.2482 65.8624 54.9697 65.52 53.7745 65.1042C52.5792 64.6887 51.5647 64.2731 50.7446 63.8452L48.4097 71.6935C49.4521 72.2314 50.6614 72.7081 52.0511 73.1115C53.4271 73.5152 54.9279 73.8328 56.5261 74.0652C58.1384 74.2852 59.7923 74.4073 61.5016 74.4073C65.3791 74.3952 68.6731 73.8573 71.3832 72.7938C74.1073 71.718 76.1778 70.2266 77.6094 68.2951C79.0272 66.3758 79.7497 64.1018 79.7638 61.498C79.7775 58.6862 78.8324 56.2535 76.9562 54.212C75.066 52.1704 72.1614 50.4466 68.2561 49.0286C66.4912 48.3807 65.0874 47.7817 64.045 47.2438C63.0026 46.7058 62.266 46.1435 61.8214 45.5811C61.3766 45.0065 61.1543 44.3463 61.168 43.6007C61.168 42.8549 61.3906 42.1948 61.8214 41.608C62.266 41.0334 62.9054 40.5689 63.7671 40.2266C64.615 39.8965 65.6711 39.7131 66.922 39.7131C68.1032 39.7252 69.229 39.8355 70.299 40.0555C71.3832 40.2632 72.384 40.5445 73.301 40.8624C74.2183 41.1922 75.0106 41.5101 75.6775 41.8403L78.0126 34.2118ZM134.8 32.0848H122.458V72.9404H134.8V32.0848ZM99.9457 55.7766V48.2217H108.282C108.31 47.1457 108.199 46.0456 107.935 44.9453C107.685 43.845 107.24 42.8304 106.643 41.889C106.031 40.96 105.211 40.2142 104.182 39.6397C103.154 39.0652 101.875 38.7718 100.36 38.7596C100.22 38.7607 100.082 38.7647 99.9457 38.7711V31.233C100.329 31.2158 100.717 31.2063 101.111 31.2045C104.891 31.2045 108.157 31.9869 110.937 33.5152C113.716 35.0555 115.856 37.3293 117.386 40.3366C118.914 43.3317 119.692 47.0359 119.707 51.449C119.707 52.2559 119.679 53.0383 119.637 53.7718C119.582 54.5176 119.498 55.1776 119.373 55.7766H99.9457ZM99.9457 73.589V65.089C101.31 65.3813 102.755 65.5321 104.28 65.5321C106.559 65.52 108.63 65.3608 110.478 65.0432C112.341 64.7374 114.05 64.3342 115.621 63.845L117.372 71.3269C116.093 71.8156 114.647 72.2312 113.049 72.5859C111.465 72.9404 109.769 73.2094 107.963 73.3928C106.156 73.5762 104.294 73.6739 102.362 73.6739C101.535 73.6699 100.729 73.6417 99.9457 73.589Z" fill="white"/>
<path fill-rule="evenodd" clip-rule="evenodd" d="M137.842 57.464H150.183V16.6084H137.842V57.464Z" fill="#91BB25"/>
<path fill-rule="evenodd" clip-rule="evenodd" d="M128.623 28.5518C132.297 28.5518 135.293 25.9091 135.293 22.6688C135.293 19.429 132.297 16.7861 128.623 16.7861C124.949 16.7861 121.952 19.429 121.952 22.6688C121.952 25.9091 124.949 28.5518 128.623 28.5518Z" fill="#91BB25"/>
<path d="M128.623 28.5518C132.297 28.5518 135.293 25.9091 135.293 22.6688C135.293 19.429 132.297 16.7861 128.623 16.7861C124.949 16.7861 121.952 19.429 121.952 22.6688C121.952 25.9091 124.949 28.5518 128.623 28.5518Z" stroke="#91BB25" stroke-width="0.0826159" stroke-miterlimit="22.926"/>
<path fill-rule="evenodd" clip-rule="evenodd" d="M144.013 72.8405C147.687 72.8405 150.683 70.1978 150.683 66.9575C150.683 63.7174 147.687 61.075 144.013 61.075C140.339 61.075 137.342 63.7174 137.342 66.9575C137.342 70.1978 140.339 72.8405 144.013 72.8405Z" fill="white"/>
<path d="M144.013 72.8405C147.687 72.8405 150.683 70.1978 150.683 66.9575C150.683 63.7174 147.687 61.075 144.013 61.075C140.339 61.075 137.342 63.7174 137.342 66.9575C137.342 70.1978 140.339 72.8405 144.013 72.8405Z" fill="white" stroke="#0994DC" stroke-width="0.0826159" stroke-miterlimit="22.926"/>
</g>
</svg>
